<svg width="980" height="720" viewBox="0 0 980 720" fill="none" xmlns="http://www.w3.org/2000/svg">
  <rect width="980" height="720" rx="18" fill="#ffffff"/>
  <rect x="1" y="1" width="978" height="718" rx="17" stroke="#e6e4dc"/>
  <rect x="1" y="1" width="978" height="46" rx="17" fill="#fafaf7"/>
  <path d="M1 47H979" stroke="#e6e4dc"/>
  <circle cx="24" cy="24" r="7" fill="#ef4444"/>
  <circle cx="44" cy="24" r="7" fill="#f59e0b"/>
  <circle cx="64" cy="24" r="7" fill="#22c55e"/>
  <text x="490" y="29" text-anchor="middle" font-family="Inter, Arial, sans-serif" font-size="14" font-weight="600" fill="#1a1a1a">Reg 105 Automation - Q1 2026 Run</text>
  <g font-family="JetBrains Mono, monospace" font-size="13">
    <rect x="26" y="72" width="116" height="38" rx="19" fill="#f0fdf4" stroke="#bbf7d0"/>
    <text x="84" y="96" text-anchor="middle" fill="#166534">Rollover</text>
    <rect x="160" y="72" width="112" height="38" rx="19" fill="#f0fdf4" stroke="#bbf7d0"/>
    <text x="216" y="96" text-anchor="middle" fill="#166534">SAP Pull</text>
    <rect x="290" y="72" width="132" height="38" rx="19" fill="#f0fdf4" stroke="#bbf7d0"/>
    <text x="356" y="96" text-anchor="middle" fill="#166534">Invoice DL</text>
    <rect x="440" y="72" width="132" height="38" rx="19" fill="#fff7ed" stroke="#fb923c"/>
    <text x="506" y="96" text-anchor="middle" fill="#c2410c">WHT Check</text>
    <rect x="590" y="72" width="120" height="38" rx="19" fill="#ffffff" stroke="#e6e4dc"/>
    <text x="650" y="96" text-anchor="middle" fill="#1a1a1a">Vendor Rec</text>
    <rect x="728" y="72" width="104" height="38" rx="19" fill="#ffffff" stroke="#e6e4dc"/>
    <text x="780" y="96" text-anchor="middle" fill="#1a1a1a">CRA Rec</text>
  </g>
  <rect x="24" y="140" width="528" height="270" rx="12" fill="#ffffff" stroke="#e6e4dc"/>
  <text x="48" y="174" font-family="Fraunces, Georgia, serif" font-size="24" font-weight="500" fill="#1a1a1a">WHT Variance Check</text>
  <g font-family="JetBrains Mono, monospace" font-size="12" fill="#1a1a1a">
    <text x="48" y="214" font-weight="600">Invoice</text><text x="148" y="214" font-weight="600">Vendor</text><text x="300" y="214" font-weight="600">Gross</text><text x="376" y="214" font-weight="600">Sys WHT</text><text x="466" y="214" font-weight="600">Variance</text>
    <path d="M48 228H526M48 274H526M48 320H526M48 366H526" stroke="#e6e4dc"/>
    <text x="48" y="258">INV-1001</text><text x="148" y="258">ABC Supplies</text><text x="330" y="258" text-anchor="end">100,000</text><text x="420" y="258" text-anchor="end">5,000</text><text x="502" y="258" text-anchor="end">0</text>
    <text x="48" y="304">INV-1002</text><text x="148" y="304">Global Parts</text><text x="330" y="304" text-anchor="end">250,000</text><text x="420" y="304" text-anchor="end">12,500</text><text x="502" y="304" text-anchor="end" fill="#c2410c">(1,250)</text>
    <text x="48" y="350">INV-1003</text><text x="148" y="350">Tech Services</text><text x="330" y="350" text-anchor="end">75,000</text><text x="420" y="350" text-anchor="end">3,750</text><text x="502" y="350" text-anchor="end">0</text>
    <text x="48" y="396">INV-1004</text><text x="148" y="396">Design Co.</text><text x="330" y="396" text-anchor="end">50,000</text><text x="420" y="396" text-anchor="end">2,500</text><text x="502" y="396" text-anchor="end" fill="#c2410c">(500)</text>
  </g>
  <path d="M24 274H30V320H24" fill="#c2410c"/>
  <rect x="588" y="140" width="368" height="270" rx="12" fill="#ffffff" stroke="#e6e4dc"/>
  <text x="612" y="174" font-family="Fraunces, Georgia, serif" font-size="24" font-weight="500" fill="#1a1a1a">Vendor Reconciliation</text>
  <g font-family="JetBrains Mono, monospace" font-size="12" fill="#1a1a1a">
    <text x="612" y="214" font-weight="600">Vendor</text><text x="784" y="214" font-weight="600">Expected</text><text x="880" y="214" font-weight="600">Status</text>
    <path d="M612 228H930M612 274H930M612 320H930M612 366H930" stroke="#e6e4dc"/>
    <text x="612" y="258">ABC Supplies</text><text x="838" y="258" text-anchor="end">5,000</text><circle cx="902" cy="254" r="7" fill="#16a34a"/>
    <text x="612" y="304">Global Parts</text><text x="838" y="304" text-anchor="end">12,500</text><circle cx="902" cy="300" r="7" fill="#ea580c"/>
    <text x="612" y="350">Tech Services</text><text x="838" y="350" text-anchor="end">3,750</text><circle cx="902" cy="346" r="7" fill="#16a34a"/>
    <text x="612" y="396">Design Co.</text><text x="838" y="396" text-anchor="end">2,500</text><circle cx="902" cy="392" r="7" fill="#16a34a"/>
  </g>
  <rect x="24" y="446" width="450" height="240" rx="12" fill="#ffffff" stroke="#e6e4dc"/>
  <text x="48" y="480" font-family="Fraunces, Georgia, serif" font-size="24" font-weight="500" fill="#1a1a1a">SAP Extraction Log</text>
  <g font-family="JetBrains Mono, monospace" font-size="13" fill="#166534">
    <text x="50" y="522">08:15:22  Start SAP pull</text>
    <text x="50" y="552">08:16:05  SAP pull completed - 1,240 invoices</text>
    <text x="50" y="582">08:16:07  Validating invoice data</text>
    <text x="50" y="612">08:16:10  Validation complete</text>
    <text x="50" y="642" fill="#c2410c">08:16:24  2 variance(s) detected</text>
    <text x="50" y="672">08:16:30  WHT check completed</text>
  </g>
  <rect x="510" y="446" width="446" height="240" rx="12" fill="#ffffff" stroke="#e6e4dc"/>
  <text x="534" y="480" font-family="Fraunces, Georgia, serif" font-size="24" font-weight="500" fill="#1a1a1a">CRA Reconciliation</text>
  <g font-family="JetBrains Mono, monospace" font-size="13" fill="#1a1a1a">
    <text x="534" y="526" font-weight="600">Item</text><text x="734" y="526" font-weight="600">Expected</text><text x="850" y="526" font-weight="600">Actual</text><text x="920" y="526" font-weight="600">Var</text>
    <path d="M534 544H930M534 592H930M534 640H930" stroke="#e6e4dc"/>
    <text x="534" y="578">Total WHT</text><text x="782" y="578" text-anchor="end">29,750</text><text x="888" y="578" text-anchor="end">28,000</text><text x="928" y="578" text-anchor="end" fill="#c2410c">(1,750)</text>
    <text x="534" y="626">Remittances</text><text x="782" y="626" text-anchor="end">28,000</text><text x="888" y="626" text-anchor="end">28,000</text><text x="928" y="626" text-anchor="end">0</text>
    <text x="534" y="674">Balance Payable</text><text x="782" y="674" text-anchor="end">1,750</text><text x="888" y="674" text-anchor="end">0</text><text x="928" y="674" text-anchor="end" fill="#c2410c">(1,750)</text>
  </g>
</svg>
