<svg width="1200" height="760" viewBox="0 0 1200 760" fill="none" xmlns="http://www.w3.org/2000/svg">
  <rect width="1200" height="760" rx="18" fill="#ffffff"/>
  <rect x="1" y="1" width="1198" height="758" rx="17" stroke="#e6e4dc"/>
  <rect x="1" y="1" width="1198" height="44" rx="17" fill="#fafaf7"/>
  <path d="M1 45H1199" stroke="#e6e4dc"/>
  <circle cx="24" cy="22" r="7" fill="#ef4444"/>
  <circle cx="44" cy="22" r="7" fill="#f59e0b"/>
  <circle cx="64" cy="22" r="7" fill="#22c55e"/>
  <text x="600" y="28" text-anchor="middle" font-family="Inter, Arial, sans-serif" font-size="13" font-weight="600" fill="#1a1a1a">T2 Return Review - Adjustment Mapping</text>

  <rect x="0" y="46" width="150" height="714" fill="#fbfbf8"/>
  <path d="M150 46V760" stroke="#e6e4dc"/>
  <path d="M0 108H6V164H0" fill="#c2410c"/>
  <g font-family="JetBrains Mono, monospace" font-size="15" fill="#4a4a4a">
    <text x="26" y="140" font-weight="700" fill="#c2410c">Sch 1</text>
    <text x="26" y="225">Sch 4</text>
    <text x="26" y="310">Sch 8</text>
    <text x="26" y="395">Sch 13</text>
    <text x="26" y="480">Sch 130</text>
    <text x="26" y="565">Tax Due</text>
  </g>
  <rect x="26" y="650" width="78" height="42" rx="6" fill="#c2410c"/>
  <text x="65" y="677" text-anchor="middle" font-family="JetBrains Mono, monospace" font-size="13" font-weight="700" fill="#ffffff">ALL</text>

  <text x="205" y="112" font-family="Fraunces, Georgia, serif" font-size="25" font-weight="500" fill="#1a1a1a">Schedule 1 - Adjustment Code Mapping</text>
  <rect x="190" y="154" width="960" height="72" rx="8" fill="#fafaf7" stroke="#e6e4dc"/>
  <g font-family="JetBrains Mono, monospace" font-size="11" font-weight="700" fill="#1a1a1a">
    <text x="220" y="198">Line</text>
    <text x="310" y="198">Description</text>
    <text x="545" y="198">Return Amount</text>
    <text x="720" y="198">Provision Amount</text>
    <text x="900" y="198">Adj Code</text>
    <text x="1085" y="198">Status</text>
  </g>

  <g font-family="Inter, Arial, sans-serif" font-size="13" fill="#1a1a1a">
    <path d="M190 280H1150M190 350H1150M190 420H1150M190 490H1150M190 560H1150M190 630H1150" stroke="#e6e4dc"/>
    <text x="220" y="264">101</text><text x="310" y="264">Meals &amp; entertainment</text><text x="655" y="264" text-anchor="end">(45,678)</text><text x="835" y="264" text-anchor="end">(45,678)</text><text x="920" y="264">P8520</text>
    <rect x="1080" y="242" width="42" height="24" rx="12" fill="#dcfce7"/><text x="1101" y="259" text-anchor="middle" font-size="11" fill="#166534">OK</text>

    <text x="220" y="334">106</text><text x="310" y="334">Stock option deduction</text><text x="655" y="334" text-anchor="end">(123,456)</text><text x="835" y="334" text-anchor="end">(100,000)</text><text x="920" y="334">P8670</text>
    <rect x="1076" y="312" width="46" height="24" rx="12" fill="#ffedd5"/><text x="1099" y="329" text-anchor="middle" font-size="11" fill="#b45309">RTP</text>

    <text x="220" y="404">120</text><text x="310" y="404">CCA - Class 8</text><text x="655" y="404" text-anchor="end">(234,567)</text><text x="835" y="404" text-anchor="end">(234,567)</text><text x="920" y="404">T8930</text>
    <rect x="1080" y="382" width="42" height="24" rx="12" fill="#dcfce7"/><text x="1101" y="399" text-anchor="middle" font-size="11" fill="#166534">OK</text>

    <text x="220" y="474">125</text><text x="310" y="474">Non-capital loss</text><text x="655" y="474" text-anchor="end">(456,789)</text><text x="835" y="474" text-anchor="end">(400,000)</text><text x="920" y="474">T9780</text>
    <rect x="1076" y="452" width="46" height="24" rx="12" fill="#ffedd5"/><text x="1099" y="469" text-anchor="middle" font-size="11" fill="#b45309">RTP</text>

    <text x="220" y="544">143</text><text x="310" y="544">Transfer pricing adj.</text><text x="655" y="544" text-anchor="end">67,890</text><text x="835" y="544" text-anchor="end">67,890</text><text x="920" y="544">P9997</text>
    <rect x="1080" y="522" width="42" height="24" rx="12" fill="#dcfce7"/><text x="1101" y="539" text-anchor="middle" font-size="11" fill="#166534">OK</text>

    <text x="220" y="614">192</text><text x="310" y="614">Loss carryforward</text><text x="655" y="614" text-anchor="end">(1,234,567)</text><text x="835" y="614" text-anchor="end">(1,234,567)</text><text x="920" y="614">T1110</text>
    <rect x="1080" y="592" width="42" height="24" rx="12" fill="#dcfce7"/><text x="1101" y="609" text-anchor="middle" font-size="11" fill="#166534">OK</text>
  </g>

  <rect x="190" y="684" width="960" height="42" rx="8" fill="#fff7ed" stroke="#fed7aa"/>
  <text x="670" y="710" text-anchor="middle" font-family="JetBrains Mono, monospace" font-size="13" fill="#1a1a1a">68 lines mapped  +  P/T codes assigned  +  2 RTP entries required</text>
</svg>
