<svg width="1200" height="760" viewBox="0 0 1200 760" fill="none" xmlns="http://www.w3.org/2000/svg">
  <rect width="1200" height="760" rx="18" fill="#ffffff"/>
  <rect x="1" y="1" width="1198" height="758" rx="17" stroke="#e6e4dc"/>
  <rect x="1" y="1" width="1198" height="44" rx="17" fill="#fafaf7"/>
  <path d="M1 45H1199" stroke="#e6e4dc"/>
  <circle cx="24" cy="22" r="7" fill="#ef4444"/>
  <circle cx="44" cy="22" r="7" fill="#f59e0b"/>
  <circle cx="64" cy="22" r="7" fill="#22c55e"/>
  <text x="600" y="28" text-anchor="middle" font-family="Inter, Arial, sans-serif" font-size="13" font-weight="600" fill="#1a1a1a">Tax Operations Dashboard - Review View</text>

  <rect x="0" y="46" width="150" height="714" fill="#fbfbf8"/>
  <path d="M150 46V760" stroke="#e6e4dc"/>
  <path d="M0 112H6V168H0" fill="#c2410c"/>
  <g font-family="JetBrains Mono, monospace" font-size="15" fill="#4a4a4a">
    <text x="26" y="144" font-weight="700" fill="#c2410c">Dashboard</text>
    <text x="26" y="229">Entities</text>
    <text x="26" y="314">Filings</text>
    <text x="26" y="399">Documents</text>
    <text x="26" y="484">Activity</text>
    <text x="26" y="569">Calendar</text>
  </g>
  <rect x="26" y="650" width="78" height="42" rx="6" fill="#c2410c"/>
  <text x="65" y="677" text-anchor="middle" font-family="JetBrains Mono, monospace" font-size="13" font-weight="700" fill="#ffffff">FY26</text>

  <text x="205" y="112" font-family="Fraunces, Georgia, serif" font-size="25" font-weight="500" fill="#1a1a1a">Tax Operations Dashboard</text>
  <text x="205" y="140" font-family="Inter, Arial, sans-serif" font-size="13" fill="#66615c">Filing status, deadline monitoring, document support and review follow-up in one view.</text>

  <g font-family="JetBrains Mono, monospace" font-size="12">
    <rect x="190" y="166" width="128" height="36" rx="18" fill="#f0fdf4" stroke="#bbf7d0"/>
    <text x="254" y="189" text-anchor="middle" fill="#166534">Entities</text>
    <rect x="340" y="166" width="124" height="36" rx="18" fill="#fff7ed" stroke="#fb923c"/>
    <text x="402" y="189" text-anchor="middle" fill="#c2410c" font-weight="700">Filings</text>
    <rect x="486" y="166" width="144" height="36" rx="18" fill="#ffffff" stroke="#e6e4dc"/>
    <text x="558" y="189" text-anchor="middle" fill="#1a1a1a">Documents</text>
    <rect x="652" y="166" width="128" height="36" rx="18" fill="#ffffff" stroke="#e6e4dc"/>
    <text x="716" y="189" text-anchor="middle" fill="#1a1a1a">Review Log</text>
    <rect x="802" y="166" width="126" height="36" rx="18" fill="#ffffff" stroke="#e6e4dc"/>
    <text x="865" y="189" text-anchor="middle" fill="#1a1a1a">Calendar</text>
  </g>

  <g font-family="Inter, Arial, sans-serif">
    <rect x="190" y="232" width="214" height="96" rx="10" fill="#ffffff" stroke="#e6e4dc"/>
    <text x="218" y="268" font-size="12" letter-spacing="0.12em" fill="#888880">DUE SOON</text>
    <text x="218" y="307" font-family="Fraunces, Georgia, serif" font-size="40" font-weight="500" fill="#1a1a1a">23</text>
    <path d="M326 303L370 260" stroke="#fed7aa" stroke-width="6" stroke-linecap="round"/>

    <rect x="428" y="232" width="214" height="96" rx="10" fill="#ffffff" stroke="#e6e4dc"/>
    <text x="456" y="268" font-size="12" letter-spacing="0.12em" fill="#888880">IN REVIEW</text>
    <text x="456" y="307" font-family="Fraunces, Georgia, serif" font-size="40" font-weight="500" fill="#1a1a1a">41</text>
    <path d="M566 301H610" stroke="#c2410c" stroke-width="6" stroke-linecap="round"/>

    <rect x="666" y="232" width="214" height="96" rx="10" fill="#ffffff" stroke="#e6e4dc"/>
    <text x="694" y="268" font-size="12" letter-spacing="0.12em" fill="#888880">FILED YTD</text>
    <text x="694" y="307" font-family="Fraunces, Georgia, serif" font-size="40" font-weight="500" fill="#1a1a1a">188</text>
    <path d="M790 298L806 314L838 274" stroke="#166534" stroke-width="7" stroke-linecap="round" stroke-linejoin="round"/>

    <rect x="904" y="232" width="246" height="96" rx="10" fill="#fff7ed" stroke="#fed7aa"/>
    <text x="932" y="268" font-size="12" letter-spacing="0.12em" fill="#c2410c">OPEN FOLLOW-UP</text>
    <text x="932" y="307" font-family="Fraunces, Georgia, serif" font-size="40" font-weight="500" fill="#c2410c">8</text>
    <text x="1010" y="300" font-size="13" fill="#9a3412">items need review</text>
  </g>

  <rect x="190" y="364" width="620" height="276" rx="10" fill="#ffffff" stroke="#e6e4dc"/>
  <text x="216" y="402" font-family="Fraunces, Georgia, serif" font-size="22" font-weight="500" fill="#1a1a1a">Filing Status Review</text>
  <text x="760" y="402" text-anchor="end" font-family="JetBrains Mono, monospace" font-size="11" fill="#888880">FILTERED BY YEAR + STATUS</text>
  <rect x="216" y="428" width="568" height="42" rx="8" fill="#fafaf7"/>
  <g font-family="JetBrains Mono, monospace" font-size="10.5" font-weight="700" fill="#1a1a1a">
    <text x="240" y="455">Workstream</text>
    <text x="420" y="455">Entity</text>
    <text x="540" y="455">Due</text>
    <text x="650" y="455">Status</text>
  </g>
  <g font-family="Inter, Arial, sans-serif" font-size="13" fill="#1a1a1a">
    <path d="M216 508H784M216 552H784M216 596H784" stroke="#e6e4dc"/>

    <text x="240" y="498">T2 compliance package</text>
    <text x="420" y="498">Entity A</text>
    <text x="540" y="498">Jun 30</text>
    <rect x="640" y="480" width="58" height="24" rx="12" fill="#ffedd5"/>
    <text x="669" y="497" text-anchor="middle" font-size="11" fill="#b45309">Review</text>

    <text x="240" y="542">Withholding analysis</text>
    <text x="420" y="542">Entity B</text>
    <text x="540" y="542">Monthly</text>
    <rect x="636" y="524" width="74" height="24" rx="12" fill="#eff6ff"/>
    <text x="673" y="541" text-anchor="middle" font-size="11" fill="#1d4ed8">Progress</text>

    <text x="240" y="586">Provision support</text>
    <text x="420" y="586">Group</text>
    <text x="540" y="586">Close</text>
    <rect x="640" y="568" width="48" height="24" rx="12" fill="#dcfce7"/>
    <text x="664" y="585" text-anchor="middle" font-size="11" fill="#166534">OK</text>

    <text x="240" y="630">Document evidence</text>
    <text x="420" y="630">Multiple</text>
    <text x="540" y="630">Ongoing</text>
    <rect x="640" y="612" width="58" height="24" rx="12" fill="#ffedd5"/>
    <text x="669" y="629" text-anchor="middle" font-size="11" fill="#b45309">Review</text>
  </g>
  <path d="M190 480H196V508H190" fill="#c2410c"/>

  <rect x="840" y="364" width="310" height="126" rx="10" fill="#ffffff" stroke="#e6e4dc"/>
  <text x="866" y="402" font-family="Fraunces, Georgia, serif" font-size="22" font-weight="500" fill="#1a1a1a">Document Support</text>
  <g font-family="Inter, Arial, sans-serif" font-size="12" fill="#4a4a4a">
    <path d="M866 430H1124M866 466H1124" stroke="#e6e4dc"/>
    <path d="M870 420H884L892 428V450H870V420Z" fill="#fed7aa" stroke="#c2410c"/>
    <text x="906" y="441">Support linked to filing record</text>
    <path d="M870 456H884L892 464V486H870V456Z" fill="#fed7aa" stroke="#c2410c"/>
    <text x="906" y="477">Review evidence retained</text>
  </g>

  <rect x="840" y="514" width="310" height="126" rx="10" fill="#ffffff" stroke="#e6e4dc"/>
  <text x="866" y="552" font-family="Fraunces, Georgia, serif" font-size="22" font-weight="500" fill="#1a1a1a">Activity Log</text>
  <g font-family="JetBrains Mono, monospace" font-size="11" fill="#166534">
    <text x="866" y="592">09:12  Filing status refreshed</text>
    <text x="866" y="620">09:18  Support package added</text>
  </g>
  <text x="866" y="650" font-family="JetBrains Mono, monospace" font-size="11" fill="#c2410c">09:24  2 items flagged for review</text>

  <rect x="190" y="684" width="960" height="42" rx="8" fill="#fff7ed" stroke="#fed7aa"/>
  <text x="670" y="710" text-anchor="middle" font-family="JetBrains Mono, monospace" font-size="13" fill="#1a1a1a">Entity tracker  +  Filing status  +  Document support  +  Review follow-up</text>
</svg>
