<svg width="1200" height="760" viewBox="0 0 1200 760" fill="none" xmlns="http://www.w3.org/2000/svg">
  <rect width="1200" height="760" rx="18" fill="#ffffff"/>
  <rect x="1" y="1" width="1198" height="758" rx="17" stroke="#e6e4dc"/>
  <rect x="1" y="1" width="1198" height="44" rx="17" fill="#fafaf7"/>
  <path d="M1 45H1199" stroke="#e6e4dc"/>
  <circle cx="24" cy="22" r="7" fill="#ef4444"/>
  <circle cx="44" cy="22" r="7" fill="#f59e0b"/>
  <circle cx="64" cy="22" r="7" fill="#22c55e"/>
  <text x="600" y="28" text-anchor="middle" font-family="Inter, Arial, sans-serif" font-size="13" font-weight="600" fill="#1a1a1a">Reg 105 Automation - January Run</text>

  <g font-family="JetBrains Mono, monospace" font-size="12">
    <rect x="30" y="68" width="116" height="36" rx="18" fill="#f0fdf4" stroke="#bbf7d0"/>
    <text x="88" y="91" text-anchor="middle" fill="#166534">Rollover</text>
    <rect x="168" y="68" width="116" height="36" rx="18" fill="#f0fdf4" stroke="#bbf7d0"/>
    <text x="226" y="91" text-anchor="middle" fill="#166534">ERP Pull</text>
    <rect x="306" y="68" width="130" height="36" rx="18" fill="#f0fdf4" stroke="#bbf7d0"/>
    <text x="371" y="91" text-anchor="middle" fill="#166534">Doc DL</text>
    <rect x="458" y="68" width="128" height="36" rx="18" fill="#fff7ed" stroke="#fb923c"/>
    <text x="522" y="91" text-anchor="middle" fill="#c2410c" font-weight="700">WHT Check</text>
    <rect x="608" y="68" width="128" height="36" rx="18" fill="#ffffff" stroke="#e6e4dc"/>
    <text x="672" y="91" text-anchor="middle" fill="#1a1a1a">Payee Rec</text>
    <rect x="758" y="68" width="116" height="36" rx="18" fill="#ffffff" stroke="#e6e4dc"/>
    <text x="816" y="91" text-anchor="middle" fill="#1a1a1a">CRA Rec</text>
  </g>

  <rect x="30" y="134" width="570" height="292" rx="12" fill="#ffffff" stroke="#e6e4dc"/>
  <text x="56" y="172" font-family="Fraunces, Georgia, serif" font-size="22" font-weight="500" fill="#1a1a1a">WHT Variance Check</text>
  <g font-family="JetBrains Mono, monospace" font-size="10.5" fill="#1a1a1a">
    <text x="56" y="214" font-weight="700">Doc</text><text x="158" y="214" font-weight="700">Payee</text><text x="328" y="214" font-weight="700">Gross</text><text x="412" y="214" font-weight="700">Sys WHT</text><text x="502" y="214" font-weight="700">Var</text>
    <path d="M56 232H574M56 278H574M56 324H574M56 370H574" stroke="#e6e4dc"/>
    <text x="56" y="262">DOC-1001</text><text x="158" y="262">Payee A</text><text x="378" y="262" text-anchor="end">100,000</text><text x="468" y="262" text-anchor="end">5,000</text><text x="550" y="262" text-anchor="end">0</text>
    <text x="56" y="308">DOC-1002</text><text x="158" y="308">Payee B</text><text x="378" y="308" text-anchor="end">250,000</text><text x="468" y="308" text-anchor="end">12,500</text><text x="550" y="308" text-anchor="end" fill="#c2410c">(1,250)</text>
    <text x="56" y="354">DOC-1003</text><text x="158" y="354">Payee C</text><text x="378" y="354" text-anchor="end">75,000</text><text x="468" y="354" text-anchor="end">3,750</text><text x="550" y="354" text-anchor="end">0</text>
    <text x="56" y="400">DOC-1004</text><text x="158" y="400">Payee D</text><text x="378" y="400" text-anchor="end">50,000</text><text x="468" y="400" text-anchor="end">2,500</text><text x="550" y="400" text-anchor="end" fill="#c2410c">(500)</text>
  </g>
  <path d="M30 278H36V324H30" fill="#c2410c"/>

  <rect x="628" y="134" width="542" height="292" rx="12" fill="#ffffff" stroke="#e6e4dc"/>
  <text x="654" y="172" font-family="Fraunces, Georgia, serif" font-size="22" font-weight="500" fill="#1a1a1a">Payee Reconciliation</text>
  <g font-family="JetBrains Mono, monospace" font-size="10.5" fill="#1a1a1a">
    <text x="654" y="214" font-weight="700">Payee</text><text x="872" y="214" font-weight="700">Expected</text><text x="982" y="214" font-weight="700">Actual</text><text x="1090" y="214" font-weight="700">Status</text>
    <path d="M654 232H1144M654 278H1144M654 324H1144M654 370H1144" stroke="#e6e4dc"/>
    <text x="654" y="262">Payee A</text><text x="930" y="262" text-anchor="end">5,000</text><text x="1030" y="262" text-anchor="end">5,000</text><circle cx="1105" cy="258" r="6" fill="#16a34a"/>
    <text x="654" y="308">Payee B</text><text x="930" y="308" text-anchor="end">12,500</text><text x="1030" y="308" text-anchor="end">11,250</text><circle cx="1105" cy="304" r="6" fill="#ea580c"/>
    <text x="654" y="354">Payee C</text><text x="930" y="354" text-anchor="end">3,750</text><text x="1030" y="354" text-anchor="end">3,750</text><circle cx="1105" cy="350" r="6" fill="#16a34a"/>
    <text x="654" y="400">Payee D</text><text x="930" y="400" text-anchor="end">2,500</text><text x="1030" y="400" text-anchor="end">2,000</text><circle cx="1105" cy="396" r="6" fill="#ea580c"/>
  </g>

  <rect x="30" y="456" width="570" height="256" rx="12" fill="#ffffff" stroke="#e6e4dc"/>
  <text x="56" y="494" font-family="Fraunces, Georgia, serif" font-size="22" font-weight="500" fill="#1a1a1a">ERP Extraction Log</text>
  <g font-family="JetBrains Mono, monospace" font-size="12" fill="#166534">
    <text x="58" y="546">08:15:22  Start ERP pull</text>
    <text x="58" y="578">08:16:05  ERP pull completed - source docs</text>
    <text x="58" y="610">08:16:07  Validating document data</text>
    <text x="58" y="642">08:16:10  Validation complete</text>
    <text x="58" y="674" fill="#c2410c">08:16:24  2 variance(s) detected</text>
  </g>

  <rect x="628" y="456" width="542" height="256" rx="12" fill="#ffffff" stroke="#e6e4dc"/>
  <text x="654" y="494" font-family="Fraunces, Georgia, serif" font-size="22" font-weight="500" fill="#1a1a1a">CRA Reconciliation</text>
  <g font-family="JetBrains Mono, monospace" font-size="11" fill="#1a1a1a">
    <text x="654" y="544" font-weight="700">Item</text><text x="888" y="544" font-weight="700">Expected</text><text x="1015" y="544" font-weight="700">Actual</text><text x="1106" y="544" font-weight="700">Var</text>
    <path d="M654 564H1144M654 624H1144M654 684H1144" stroke="#e6e4dc"/>
    <text x="654" y="604">Total WHT</text><text x="946" y="604" text-anchor="end">29,750</text><text x="1055" y="604" text-anchor="end">28,000</text><text x="1132" y="604" text-anchor="end" fill="#c2410c">(1,750)</text>
    <text x="654" y="664">Remittances</text><text x="946" y="664" text-anchor="end">28,000</text><text x="1055" y="664" text-anchor="end">28,000</text><text x="1132" y="664" text-anchor="end">0</text>
  </g>
</svg>
