<svg width="1200" height="760" viewBox="0 0 1200 760" fill="none" xmlns="http://www.w3.org/2000/svg">
  <rect width="1200" height="760" rx="18" fill="#ffffff"/>
  <rect x="1" y="1" width="1198" height="758" rx="17" stroke="#e6e4dc"/>

  <rect x="1" y="1" width="1198" height="44" rx="17" fill="#fafaf7"/>
  <path d="M1 45H1199" stroke="#e6e4dc"/>
  <circle cx="24" cy="22" r="7" fill="#ef4444"/>
  <circle cx="44" cy="22" r="7" fill="#f59e0b"/>
  <circle cx="64" cy="22" r="7" fill="#22c55e"/>
  <text x="600" y="28" text-anchor="middle" font-family="Inter, Arial, sans-serif" font-size="13" font-weight="600" fill="#1a1a1a">SharePoint Tax Library - Metadata View</text>

  <rect x="1" y="46" width="1198" height="50" fill="#0078D4"/>
  <g fill="#ffffff" opacity="0.92">
    <circle cx="28" cy="64" r="2.4"/><circle cx="40" cy="64" r="2.4"/><circle cx="52" cy="64" r="2.4"/>
    <circle cx="28" cy="76" r="2.4"/><circle cx="40" cy="76" r="2.4"/><circle cx="52" cy="76" r="2.4"/>
    <circle cx="28" cy="88" r="2.4"/><circle cx="40" cy="88" r="2.4"/><circle cx="52" cy="88" r="2.4"/>
  </g>
  <rect x="82" y="58" width="29" height="27" rx="5" fill="#038387"/>
  <text x="96.5" y="77" text-anchor="middle" fill="#ffffff" font-family="Inter, Arial, sans-serif" font-size="14" font-weight="700">S</text>
  <text x="126" y="76" fill="#ffffff" font-family="Inter, Arial, sans-serif" font-size="17" font-weight="600">SharePoint</text>
  <rect x="368" y="58" width="360" height="26" rx="13" fill="#ffffff" opacity="0.22"/>
  <text x="548" y="76" text-anchor="middle" fill="#ffffff" font-family="Inter, Arial, sans-serif" font-size="12">Search this document library</text>
  <text x="1128" y="76" text-anchor="end" fill="#ffffff" font-family="Inter, Arial, sans-serif" font-size="12">Tax Team</text>

  <rect x="1" y="96" width="1198" height="78" fill="#ffffff"/>
  <path d="M1 174H1199" stroke="#e6e4dc"/>
  <text x="34" y="132" fill="#888880" font-family="Inter, Arial, sans-serif" font-size="12">Tax Team Site</text>
  <text x="34" y="158" fill="#1a1a1a" font-family="Fraunces, Georgia, serif" font-size="26" font-weight="500">Documents</text>
  <g font-family="Inter, Arial, sans-serif" font-size="13">
    <text x="258" y="150" fill="#1a1a1a">Home</text>
    <text x="328" y="150" fill="#1a1a1a">Documents</text>
    <text x="430" y="150" fill="#c2410c" font-weight="600">Tax Metadata View</text>
  </g>
  <path d="M430 160H548" stroke="#c2410c" stroke-width="2"/>

  <rect x="1" y="174" width="198" height="585" fill="#fbfbf8"/>
  <path d="M199 174V760" stroke="#e6e4dc"/>
  <g font-family="Inter, Arial, sans-serif" font-size="13" fill="#4a4a4a">
    <text x="34" y="218">Quick launch</text>
    <text x="34" y="264">Shared documents</text>
    <text x="34" y="306">Provision</text>
    <text x="34" y="348">Compliance</text>
    <text x="34" y="390">Withholding</text>
    <text x="34" y="432">Audit support</text>
  </g>
  <rect x="22" y="242" width="154" height="36" rx="6" fill="#fff7ed"/>
  <path d="M22 242H28V278H22" fill="#c2410c"/>
  <text x="44" y="265" fill="#c2410c" font-family="Inter, Arial, sans-serif" font-size="13" font-weight="600">Tax library</text>

  <rect x="224" y="198" width="934" height="44" rx="8" fill="#ffffff" stroke="#e6e4dc"/>
  <g font-family="Inter, Arial, sans-serif" font-size="13" fill="#1a1a1a">
    <rect x="244" y="207" width="72" height="26" rx="4" fill="#0078D4"/>
    <text x="280" y="225" text-anchor="middle" fill="#ffffff" font-weight="600">+ New</text>
    <text x="342" y="225">Upload</text>
    <text x="420" y="225">Sync</text>
    <text x="486" y="225">Automate</text>
    <text x="580" y="225">Export</text>
    <text x="1042" y="225">All documents</text>
  </g>
  <path d="M1034 229L1040 235L1046 229" stroke="#4a4a4a" stroke-width="1.4" stroke-linecap="round" stroke-linejoin="round"/>

  <rect x="224" y="262" width="934" height="398" rx="10" fill="#ffffff" stroke="#e6e4dc"/>
  <rect x="224" y="262" width="934" height="46" rx="10" fill="#fafaf7"/>
  <path d="M224 308H1158" stroke="#e6e4dc"/>
  <g font-family="Inter, Arial, sans-serif" font-size="12" font-weight="600" fill="#4a4a4a">
    <text x="272" y="291">Name</text>
    <text x="492" y="291">Entity</text>
    <text x="620" y="291">Document Type</text>
    <text x="770" y="291">Tax Year</text>
    <text x="878" y="291">Jurisdiction</text>
    <text x="1028" y="291">Naming Status</text>
  </g>
  <path d="M470 262V660M600 262V660M748 262V660M856 262V660M1004 262V660" stroke="#f0eee8"/>

  <g font-family="Inter, Arial, sans-serif" font-size="13" fill="#1a1a1a">
    <path d="M224 380H1158M224 452H1158M224 524H1158M224 596H1158" stroke="#e6e4dc"/>

    <rect x="244" y="334" width="16" height="16" rx="2" fill="#ffffff" stroke="#c8c6c4"/>
    <path d="M284 326H301L310 335V354H284V326Z" fill="#fed7aa" stroke="#c2410c" stroke-width="1"/>
    <path d="M301 326V335H310" stroke="#c2410c" stroke-width="1"/>
    <text x="324" y="346">A_T2_2026.pdf</text>
    <text x="492" y="346">Entity A</text>
    <rect x="620" y="328" width="58" height="24" rx="12" fill="#fff7ed"/>
    <text x="649" y="345" text-anchor="middle" font-family="JetBrains Mono, monospace" font-size="10" fill="#c2410c">T2</text>
    <text x="770" y="346">2026</text>
    <text x="878" y="346">Canada</text>
    <rect x="1024" y="328" width="58" height="24" rx="12" fill="#dcfce7"/>
    <text x="1053" y="345" text-anchor="middle" fill="#166534" font-size="11">Pass</text>

    <rect x="244" y="406" width="16" height="16" rx="2" fill="#ffffff" stroke="#c8c6c4"/>
    <path d="M284 398H301L310 407V426H284V398Z" fill="#fed7aa" stroke="#c2410c" stroke-width="1"/>
    <path d="M301 398V407H310" stroke="#c2410c" stroke-width="1"/>
    <text x="324" y="418">B_T5013_2026.xlsx</text>
    <text x="492" y="418">Entity B</text>
    <rect x="610" y="400" width="78" height="24" rx="12" fill="#fff7ed"/>
    <text x="649" y="417" text-anchor="middle" font-family="JetBrains Mono, monospace" font-size="10" fill="#c2410c">T5013</text>
    <text x="770" y="418">2026</text>
    <text x="878" y="418">Canada</text>
    <rect x="1018" y="400" width="72" height="24" rx="12" fill="#ffedd5"/>
    <text x="1054" y="417" text-anchor="middle" fill="#b45309" font-size="11">Review</text>

    <rect x="244" y="478" width="16" height="16" rx="2" fill="#ffffff" stroke="#c8c6c4"/>
    <path d="M284 470H301L310 479V498H284V470Z" fill="#fed7aa" stroke="#c2410c" stroke-width="1"/>
    <path d="M301 470V479H310" stroke="#c2410c" stroke-width="1"/>
    <text x="324" y="490">A_T2_2025.pdf</text>
    <text x="492" y="490">Entity A</text>
    <rect x="620" y="472" width="58" height="24" rx="12" fill="#fff7ed"/>
    <text x="649" y="489" text-anchor="middle" font-family="JetBrains Mono, monospace" font-size="10" fill="#c2410c">T2</text>
    <text x="770" y="490">2025</text>
    <text x="878" y="490">Canada</text>
    <rect x="1024" y="472" width="58" height="24" rx="12" fill="#dcfce7"/>
    <text x="1053" y="489" text-anchor="middle" fill="#166534" font-size="11">Pass</text>

    <rect x="244" y="550" width="16" height="16" rx="2" fill="#ffffff" stroke="#c8c6c4"/>
    <path d="M284 542H301L310 551V570H284V542Z" fill="#fed7aa" stroke="#c2410c" stroke-width="1"/>
    <path d="M301 542V551H310" stroke="#c2410c" stroke-width="1"/>
    <text x="324" y="562">B_T5013_2025.xlsx</text>
    <text x="492" y="562">Entity B</text>
    <rect x="610" y="544" width="78" height="24" rx="12" fill="#fff7ed"/>
    <text x="649" y="561" text-anchor="middle" font-family="JetBrains Mono, monospace" font-size="10" fill="#c2410c">T5013</text>
    <text x="770" y="562">2025</text>
    <text x="878" y="562">Canada</text>
    <rect x="1024" y="544" width="58" height="24" rx="12" fill="#dcfce7"/>
    <text x="1053" y="561" text-anchor="middle" fill="#166534" font-size="11">Pass</text>
  </g>

  <rect x="224" y="682" width="934" height="42" rx="8" fill="#fff7ed" stroke="#fed7aa"/>
  <text x="691" y="708" text-anchor="middle" font-family="JetBrains Mono, monospace" font-size="13" fill="#1a1a1a">Entity  +  Document Type  +  Tax Year  +  Jurisdiction</text>
</svg>
