<svg width="960" height="760" viewBox="0 0 960 760" fill="none" xmlns="http://www.w3.org/2000/svg">
  <rect width="960" height="760" rx="28" fill="#ffffff"/>
  <rect x="44" y="44" width="872" height="672" rx="22" fill="#fafaf7" stroke="#e6e4dc"/>
  <path d="M120 606C235 530 318 559 440 489C579 409 650 286 840 232" stroke="#c2410c" stroke-width="5" stroke-linecap="round"/>
  <path d="M120 606C235 530 318 559 440 489C579 409 650 286 840 232" stroke="#fed7aa" stroke-width="22" stroke-linecap="round" opacity=".45"/>
  <g stroke="#1a1a1a" stroke-opacity=".13">
    <path d="M160 166H800"/>
    <path d="M160 256H800"/>
    <path d="M160 346H800"/>
    <path d="M160 436H800"/>
    <path d="M160 526H800"/>
    <path d="M240 120V616"/>
    <path d="M400 120V616"/>
    <path d="M560 120V616"/>
    <path d="M720 120V616"/>
  </g>
  <g>
    <rect x="152" y="134" width="180" height="96" rx="14" fill="#ffffff" stroke="#e6e4dc"/>
    <rect x="184" y="166" width="116" height="8" rx="4" fill="#c2410c"/>
    <rect x="184" y="192" width="72" height="8" rx="4" fill="#888880" opacity=".45"/>
  </g>
  <g>
    <rect x="390" y="262" width="180" height="96" rx="14" fill="#ffffff" stroke="#e6e4dc"/>
    <rect x="422" y="294" width="104" height="8" rx="4" fill="#c2410c"/>
    <rect x="422" y="320" width="84" height="8" rx="4" fill="#888880" opacity=".45"/>
  </g>
  <g>
    <rect x="628" y="150" width="180" height="96" rx="14" fill="#ffffff" stroke="#e6e4dc"/>
    <rect x="660" y="182" width="116" height="8" rx="4" fill="#c2410c"/>
    <rect x="660" y="208" width="76" height="8" rx="4" fill="#888880" opacity=".45"/>
  </g>
  <g>
    <circle cx="244" cy="520" r="38" fill="#fed7aa"/>
    <path d="M226 521L239 534L266 504" stroke="#c2410c" stroke-width="7" stroke-linecap="round" stroke-linejoin="round"/>
  </g>
  <g>
    <circle cx="704" cy="450" r="52" fill="#ffffff" stroke="#e6e4dc"/>
    <path d="M684 450H724" stroke="#c2410c" stroke-width="6" stroke-linecap="round"/>
    <path d="M704 430V470" stroke="#c2410c" stroke-width="6" stroke-linecap="round"/>
  </g>
</svg>
